Simulation
nRows=24
nColumns=15
endheader
time  TH_x TH_y TH_z SC_y  SC_z  SC_x  AC_y  AC_z  AC_x  GH_y  GH_z  GH_yy  EL_x  PS_y
1.95  0.000000  0.000000  0.000000  -30.199386946491106  8.488810699671802  38.656696357852425  61.19683120231972  -1.8543978948980862  -6.881745295290993  50.51568762994144  59.752397668294634  -43.57897676211424  22.382145629713925  0.000000
1.989  0.000000  0.000000  0.000000  -29.96789768705046  8.080723380671099  39.0327931241131  61.135822920170106  -3.006841336494594  -7.816812745515697  50.50359968626203  58.76755457681446  -42.58817597701145  22.574211107687265  0.000000
2.028  0.000000  0.000000  0.000000  -29.71461887702278  7.644211432006772  39.329259760685176  61.024817172385774  -4.072322586121008  -8.75176388173865  50.58091986787192  57.5520071204066  -41.734470965961044  22.757355044901153  0.000000
2.067  0.000000  0.000000  0.000000  -29.439342452624597  7.194805527374799  39.35822147810052  60.87109347060768  -4.873426832858963  -9.580693924294792  50.767125811143025  56.11460182612223  -41.042368115138146  22.92005227418013  0.000000
2.106  0.000000  0.000000  0.000000  -29.12599275581581  6.74551597719777  38.830106035143736  60.677609633332864  -5.201911493109308  -10.171386465947451  51.03014810841967  54.54367909337083  -40.4272509656386  23.06084739858176  0.000000
2.145  0.000000  0.000000  0.000000  -28.770587678234904  6.331870408315952  37.35564022377805  60.42322707980024  -4.783651456579944  -10.33735709873812  51.32482837057989  53.00372022119168  -39.72460923469854  23.19755050294942  0.000000
2.184  0.000000  0.000000  0.000000  -28.35996610199648  6.012483907022616  34.06211411446911  60.06934336093629  -2.960940203005318  -9.646269459820292  51.57416580435553  51.705466053403825  -38.789975224480756  23.32351983833587  0.000000
2.223  0.000000  0.000000  0.000000  -27.873966503074953  5.641417408566579  28.438974792500673  59.655684957169406  0.6906164262776278  -7.8421830549862435  51.55670328968949  50.64093680141818  -37.55959601582726  23.412026574654284  0.000000
2.262  0.000000  0.000000  0.000000  -27.41871508376638  5.051738937716632  21.892261053354087  59.21739920858848  5.036565506478523  -5.500238045297395  51.18124089653393  49.473268826254625  -36.047245951726424  23.458884276972515  0.000000
2.301  0.000000  0.000000  0.000000  -27.11355263371233  4.339382418177835  16.1844282710497  58.82450296199559  8.663851670197491  -3.387864215423153  50.6087884382428  47.94048154835592  -34.3829217684318  23.45603270267178  0.000000
2.34  0.000000  0.000000  0.000000  -26.891275925680013  3.6292475120255383  12.030591940681143  58.53087480674259  11.045633051536262  -1.9127546124400923  49.9446330318487  46.08267411136024  -32.66354396441469  23.449771481994325  0.000000
2.379  0.000000  0.000000  0.000000  -26.687353633300123  2.9892423998552884  9.472389515626816  58.32839645339833  12.111182240117355  -1.1717027133647102  49.18882879596346  44.12691277905397  -30.863133963934676  23.508675287333656  0.000000
2.418  0.000000  0.000000  0.000000  -26.49781749305434  2.4343918228129415  8.06589110161439  58.15799282822858  12.183262856949735  -0.9834018545783068  48.31472202487252  42.23074796794709  -28.884663002876284  23.6720698018074  0.000000
2.457  0.000000  0.000000  0.000000  -26.299180667610493  1.9195663813597503  7.274202913908245  57.942758400635945  11.706396395338805  -1.1172091672516544  47.26836117298464  40.42051520901329  -26.630713830903776  23.92738158483604  0.000000
2.496  0.000000  0.000000  0.000000  -26.09325844478677  1.425416223494696  6.740692045944278  57.644999870121374  10.985102259874978  -1.4053771396363621  46.00499860747436  38.666722744204485  -24.058613326435673  24.259493441765606  0.000000
2.535  0.000000  0.000000  0.000000  -25.911278897505472  0.9523740087069268  6.314337686187091  57.264446517408885  10.167929892275927  -1.7496012418276028  44.49504762433663  36.93729094341642  -21.152751655816775  24.670897650086104  0.000000
2.574  0.000000  0.000000  0.000000  -25.7726943474363  0.5100124481642779  5.945781432789236  56.817027756669525  9.319863608017272  -2.111736677068497  42.722071894347614  35.231357715462295  -17.928206860851798  25.16090620232681  0.000000
2.613  0.000000  0.000000  0.000000  -25.684792977645685  0.10727056311784312  5.617029946112267  56.31978647273613  8.474651518309837  -2.4660783287212142  40.683951032981746  33.55351852848006  -14.423311369668271  25.712542865521087  0.000000
2.652  0.000000  0.000000  0.000000  -25.635890642792273  -0.24703024583074512  5.307173873806821  55.79821078148707  7.650903871851293  -2.789633371557856  38.38210596942222  31.910647968762177  -10.722583478102102  26.281845070143042  0.000000
2.691  0.000000  0.000000  0.000000  -25.611321486860657  -0.5538705189920571  5.002941286461446  55.27819416281798  6.868225901207662  -3.0633320504429364  35.83766714372266  30.294719482379612  -6.926783469335438  26.81039956896489  0.000000
2.73  0.000000  0.000000  0.000000  -25.59976768051837  -0.8119853146513458  4.698702053965132  54.7709596489928  6.141368586030374  -3.286354146882721  33.10166274503884  28.696465667309578  -3.142613665751176  27.251707294684646  0.000000
2.769  0.000000  0.000000  0.000000  -25.602461524829078  -1.0178990032650743  4.405933800958801  54.25924468073674  5.485957237988422  -3.4834905282080255  30.269838587499112  27.10521874794038  0.5438336710328385  27.57725363220008  0.000000
2.808  0.000000  0.000000  0.000000  -25.620861491999833  -1.1654409273089352  4.135081904110948  53.704050720885846  4.917157296247792  -3.697183289593613  27.468047845356928  25.52116123348444  4.061467608875365  27.78000409642424  0.000000
2.847  0.000000  0.000000  0.000000  -25.65884426931882  -1.2488527623889119  3.908880453764061  53.070995480757915  4.434868738196864  -3.974712196124358  24.835293466327578  23.950601787799098  7.3451648033404835  27.86356690630132  0.000000
